<svg
  xmlns="http://www.w3.org/2000/svg"
  viewBox="1 19.8109 1142 26.19"
  preserveAspectRatio="none"
>
  <path
    d="M 1 36 c 1.33 -0.42 2.6 -0.78 4 -0.42 c 3.18 0.82 6.38 0.8 9.59 0.14 c 0.36 -0.07 0.75 -0.28 1.08 -0.21 c 6.8 1.4 13.68 0.23 20.5 0.62 c 2.96 0.17 5.98 -0.51 8.89 0.59 c 0.4 0.15 1.01 0.02 1.44 -0.16 c 1.48 -0.62 2.85 -0.38 4.35 0.08 c 1.15 0.35 2.47 0.19 3.71 0.22 c 3.1 0.08 6.18 -0.11 9.27 0.66 c 2.36 0.59 4.85 1.11 7.35 0.16 c 0.65 -0.25 1.52 -0.18 2.23 -0.03 c 5.18 1.15 10.44 0.53 15.66 0.61 c 6.49 0.1 12.99 0.05 19.48 0.08 c 1.62 0.01 3.22 -0.02 4.83 0.42 c 1.32 0.36 2.72 0.24 4.09 -0.02 c 0.73 -0.14 1.49 -0.45 2.19 -0.37 c 5.08 0.58 10.14 -0.37 15.23 -0.06 c 3.85 0.23 7.66 0.91 11.54 0.67 c 1.75 -0.11 3.52 0.01 5.18 -0.6 c 2.28 -0.84 4.63 -0.85 6.99 -0.82 c 4.02 0.05 7.91 -0.66 11.79 -1.64 c 2.28 -0.58 4.62 -0.93 6.94 -1.33 c 1.28 -0.22 2.45 0.18 3.6 0.73 c 2.64 1.27 5.38 1.5 8.35 1.35 c 2.66 -0.13 5.38 -0.14 8.06 -0.12 c 4.07 0.03 8.21 0.63 12.19 0.01 c 3.49 -0.54 6.9 0.02 10.35 -0.33 c 3.46 -0.36 6.98 -0.14 10.47 -0.19 c 2.11 -0.03 4.19 -0.05 6.31 -0.39 c 1.87 -0.3 3.94 0.22 5.85 0.66 c 3.12 0.72 6.17 0.53 9.25 -0.05 c 0.97 -0.18 2.02 -0.31 2.97 -0.14 c 5.94 1.09 11.87 0.95 17.8 -0.03 c 0.49 -0.08 1.02 -0.14 1.49 -0.04 c 6.15 1.31 12.08 -0.34 18.06 -1.23 c 2.6 -0.39 5.24 -0.58 7.8 0.08 c 1.62 0.42 3.28 0.57 4.82 0.28 c 3.78 -0.73 7.64 -0.66 11.41 -1.33 c 3.02 -0.53 6.04 -0.3 9.11 -0.18 c 4.83 0.19 9.69 0.53 14.56 -0.17 c 4.17 -0.6 8.35 -1.32 12.6 -1.19 c 0.37 0.01 0.78 -0.08 1.12 0.03 c 4.16 1.31 8.73 0.99 12.71 2.59 c 3.13 1.26 5.83 0.61 8.66 -0.12 c 1.23 -0.32 2.3 -0.55 3.6 -0.38 c 2.68 0.36 5.19 -0.4 7.54 -1.65 c 1.44 -0.77 2.76 -1.19 4.58 -0.75 c 1.71 0.41 3.69 -0.11 5.52 -0.37 c 3.3 -0.46 6.54 -0.84 9.88 -0.04 c 1.65 0.39 3.42 0.05 5.16 -0.39 c 4.93 -1.24 9.63 -3.1 14.43 -4.7 c 2.94 -0.98 5.94 -1.69 9.13 -1.5 c 2.48 0.15 5.05 0.07 7.33 -1.05 c 2.56 -1.26 4.81 -0.51 7.04 0.67 c 0.98 0.52 1.85 1.24 2.78 1.85 c 1.73 1.14 3.68 1.58 5.71 1.33 c 2.21 -0.27 4.41 -0.67 6.57 -1.2 c 0.7 -0.17 1.3 -0.4 2.07 -0.41 c 2.45 -0.05 4.89 -0.12 7.17 -1.4 c 1.38 -0.77 3.14 -0.58 4.7 -0.3 c 4.15 0.76 8.25 1.82 12.54 1.21 c 0.47 -0.07 1.07 -0.01 1.45 0.23 c 3.12 1.96 6.43 1.44 9.76 0.77 c 1.51 -0.3 2.94 -0.4 4.26 0.65 c 0.45 0.36 1.22 0.67 1.73 0.55 c 2.04 -0.49 3.85 0.42 5.65 0.89 c 6.43 1.69 12.74 0.97 19.08 -0.35 c 2.75 -2.19 6.49 -1.44 9.44 -3.07 c 1.05 -0.58 2.16 -0.42 3.25 0.03 c 1.15 0.48 2.29 0.98 3.48 1.34 c 2.73 0.84 5.29 1.29 8.16 -0.28 c 3.37 -1.84 7.35 -2.35 11.17 -2.47 c 2.54 -0.08 5.15 0.74 7.67 1.39 c 1.53 0.39 2.85 0.37 4.35 -0.11 c 2.11 -0.68 4.27 -1.01 6.57 -0.42 c 3.57 0.91 7.27 1.23 10.89 2.08 c 3.66 0.86 7.75 0.9 11.51 -0.07 c 4.65 -1.2 9.3 -1.51 14.03 -1.17 c 3.39 0.24 6.69 -0.09 10.02 -0.78 c 3.01 -0.63 6 -1.27 8.92 -2.22 c 0.73 -0.24 1.43 -0.46 1.95 -1.01 c 0.96 -1.01 2.21 -1.3 3.43 -0.97 c 2.51 0.69 5.09 0.1 7.6 0.64 c 1.84 0.4 3.69 0.69 5.14 1.95 c 2.54 2.2 5.56 2.07 8.49 1.45 c 2.14 -0.45 4.21 -0.54 6.29 -0.13 c 1.49 0.3 2.95 0.39 4.45 0.32 c 1.14 -0.06 2.22 0.06 3.28 0.53 c 2.09 0.94 4.35 0.99 6.6 1 c 2.98 0.01 5.96 -0.37 8.89 0.7 c 0.86 0.32 2.02 0.19 2.96 -0.05 c 3.58 -0.94 7.02 -0.92 10.6 0.28 c 2.71 0.91 5.73 1.02 8.51 0.45 c 4.22 -0.86 8.44 -0.58 12.67 -0.67 c 3.12 -0.07 6.26 -0.16 9.36 0.05 c 4.59 0.32 8.74 -1.08 12.93 -2.57 c 2.18 -0.78 4.4 -0.75 6.57 0.1 c 1.5 0.59 2.98 1.24 4.48 1.83 c 2.57 1.02 5.19 1.68 8.01 1.38 c 0.86 -0.09 1.85 -0.19 2.6 0.13 c 5.04 2.18 10.73 0.5 15.76 2.61 c 0.11 0.05 0.26 0.09 0.36 0.06 c 3.71 -1.23 7.53 0.73 11.03 -0.05 c 3.92 -0.87 7.91 -1.55 11.81 -2.55 c 1.91 -0.49 3.77 -1.46 5.68 -1.55 c 2.31 -0.11 4.09 -1.05 5.76 -2.31 c 2.41 -1.81 5.04 -2.23 8.03 -2.34 c 4.78 -0.18 9.63 -0.28 14.27 -1.8 c 1.58 -0.52 3.23 -0.16 4.84 -0.29 c 4.27 -0.36 8.4 0.29 12.48 1.48 c 0.92 0.27 1.33 1.09 2.13 1.42 c 2.38 1.01 4.58 2.28 7.23 0.08 c 1.3 -1.08 3.48 -1.07 5.33 -0.5 c 1.07 0.33 2.11 0.76 3.17 1.12 c 2.4 0.81 4.8 1.16 7.33 0.41 c 2.07 -0.61 4.21 -0.52 6.25 0.26 c 2.02 0.77 4.12 0.95 6.25 0.91 c 5.7 -0.11 11.41 -0.14 17.11 -0.44 c 1.34 -0.07 2.52 0.05 3.56 0.65 c 2.63 1.51 5.4 1.69 8.24 1.07 c 1.76 -0.39 3.39 -0.65 5.03 0.37 c 1.56 0.96 3.12 0.39 4.67 -0.17 c 3.07 -1.1 6.26 -2.02 9.51 -1.4 c 1.73 0.33 3.46 0.72 5.15 0.5 c 3.47 -0.45 6.9 0.14 10.34 0.18 c 3.88 0.05 7.69 -0.5 11.47 -1.2 c 2.73 -0.5 5.45 -0.3 8.18 -0.28 c 0.48 0 1.01 0.1 1.43 0.32 c 2.71 1.43 5.53 1.74 8.56 1.26 c 1.16 -0.19 2.43 0.38 3.66 0.43 c 2.62 0.11 5.24 0.16 7.86 0.12 c 3 -0.05 5.94 0.13 8.91 0.71 c 4.84 0.94 9.82 1.15 14.66 2.17 c 0.94 0.2 2.03 0.11 2.97 -0.13 c 5.2 -1.34 10.53 -1.83 15.85 -1.83 c 3.42 0 6.9 0.3 10.27 1.44 c 2.8 0.95 5.65 1.89 8.67 2.16 c 1.97 0.18 3.88 0.74 5.74 1.54 c 4.42 1.9 9.09 2.1 13.81 1.52 c 1.37 -0.17 2.73 -0.21 4.1 0.03 c 0.98 0.17 1.98 0.39 2.95 0.34 c 3.45 -0.2 6.72 0.43 9.76 1.99 c 1.65 0.85 3.28 1.16 4.99 0.42 c 4.91 -2.11 9.5 -0.34 14.08 1.14 c 2.11 0.68 4.35 1.43 6.08 2.73 c 2.76 2.06 5.67 1.15 8.56 1.13 c 1.19 -0.01 1.3 0.14 1.97 -0.06 v 4.2 H 1 z"
    fill="#000000"
  />
</svg>
